<svg xmlns="http://www.w3.org/2000/svg" width="1920" height="1080" viewBox="0 0 1920 1080">
  <defs>
    <linearGradient id="bg1" x1="0" y1="0" x2="1" y2="1">
      <stop offset="0%" stop-color="#0F172A"/>
      <stop offset="100%" stop-color="#0B1120"/>
    </linearGradient>
    <linearGradient id="accentLine" x1="0" y1="0" x2="1" y2="0">
      <stop offset="0%" stop-color="#38BDF8"/><stop offset="20%" stop-color="#EC4899"/><stop offset="40%" stop-color="#F59E0B"/><stop offset="60%" stop-color="#A78BFA"/><stop offset="80%" stop-color="#4ADE80"/><stop offset="100%" stop-color="#FB7185"/>
    </linearGradient>
    <filter id="glow">
      <feGaussianBlur stdDeviation="80" result="b"/>
      <feMerge><feMergeNode in="b"/><feMergeNode in="SourceGraphic"/></feMerge>
    </filter>
  </defs>

<!-- Fundo -->
  <rect width="1920" height="1080" fill="url(#bg1)"/>
  <circle cx="40" cy="60" r="1" fill="#1E293B"/><circle cx="40" cy="140" r="1" fill="#1E293B"/><circle cx="40" cy="220" r="1" fill="#1E293B"/><circle cx="40" cy="300" r="1" fill="#1E293B"/><circle cx="40" cy="380" r="1" fill="#1E293B"/><circle cx="40" cy="460" r="1" fill="#1E293B"/><circle cx="40" cy="540" r="1" fill="#1E293B"/><circle cx="40" cy="620" r="1" fill="#1E293B"/><circle cx="40" cy="700" r="1" fill="#1E293B"/><circle cx="40" cy="780" r="1" fill="#1E293B"/><circle cx="40" cy="860" r="1" fill="#1E293B"/><circle cx="40" cy="940" r="1" fill="#1E293B"/><circle cx="40" cy="1020" r="1" fill="#1E293B"/><circle cx="120" cy="60" r="1" fill="#1E293B"/><circle cx="120" cy="140" r="1" fill="#1E293B"/><circle cx="120" cy="220" r="1" fill="#1E293B"/><circle cx="120" cy="300" r="1" fill="#1E293B"/><circle cx="120" cy="380" r="1" fill="#1E293B"/><circle cx="120" cy="460" r="1" fill="#1E293B"/><circle cx="120" cy="540" r="1" fill="#1E293B"/><circle cx="120" cy="620" r="1" fill="#1E293B"/><circle cx="120" cy="700" r="1" fill="#1E293B"/><circle cx="120" cy="780" r="1" fill="#1E293B"/><circle cx="120" cy="860" r="1" fill="#1E293B"/><circle cx="120" cy="940" r="1" fill="#1E293B"/><circle cx="120" cy="1020" r="1" fill="#1E293B"/><circle cx="200" cy="60" r="1" fill="#1E293B"/><circle cx="200" cy="140" r="1" fill="#1E293B"/><circle cx="200" cy="220" r="1" fill="#1E293B"/><circle cx="200" cy="300" r="1" fill="#1E293B"/><circle cx="200" cy="380" r="1" fill="#1E293B"/><circle cx="200" cy="460" r="1" fill="#1E293B"/><circle cx="200" cy="540" r="1" fill="#1E293B"/><circle cx="200" cy="620" r="1" fill="#1E293B"/><circle cx="200" cy="700" r="1" fill="#1E293B"/><circle cx="200" cy="780" r="1" fill="#1E293B"/><circle cx="200" cy="860" r="1" fill="#1E293B"/><circle cx="200" cy="940" r="1" fill="#1E293B"/><circle cx="200" cy="1020" r="1" fill="#1E293B"/><circle cx="280" cy="60" r="1" fill="#1E293B"/><circle cx="280" cy="140" r="1" fill="#1E293B"/><circle cx="280" cy="220" r="1" fill="#1E293B"/><circle cx="280" cy="300" r="1" fill="#1E293B"/><circle cx="280" cy="380" r="1" fill="#1E293B"/><circle cx="280" cy="460" r="1" fill="#1E293B"/><circle cx="280" cy="540" r="1" fill="#1E293B"/><circle cx="280" cy="620" r="1" fill="#1E293B"/><circle cx="280" cy="700" r="1" fill="#1E293B"/><circle cx="280" cy="780" r="1" fill="#1E293B"/><circle cx="280" cy="860" r="1" fill="#1E293B"/><circle cx="280" cy="940" r="1" fill="#1E293B"/><circle cx="280" cy="1020" r="1" fill="#1E293B"/><circle cx="360" cy="60" r="1" fill="#1E293B"/><circle cx="360" cy="140" r="1" fill="#1E293B"/><circle cx="360" cy="220" r="1" fill="#1E293B"/><circle cx="360" cy="300" r="1" fill="#1E293B"/><circle cx="360" cy="380" r="1" fill="#1E293B"/><circle cx="360" cy="460" r="1" fill="#1E293B"/><circle cx="360" cy="540" r="1" fill="#1E293B"/><circle cx="360" cy="620" r="1" fill="#1E293B"/><circle cx="360" cy="700" r="1" fill="#1E293B"/><circle cx="360" cy="780" r="1" fill="#1E293B"/><circle cx="360" cy="860" r="1" fill="#1E293B"/><circle cx="360" cy="940" r="1" fill="#1E293B"/><circle cx="360" cy="1020" r="1" fill="#1E293B"/><circle cx="440" cy="60" r="1" fill="#1E293B"/><circle cx="440" cy="140" r="1" fill="#1E293B"/><circle cx="440" cy="220" r="1" fill="#1E293B"/><circle cx="440" cy="300" r="1" fill="#1E293B"/><circle cx="440" cy="380" r="1" fill="#1E293B"/><circle cx="440" cy="460" r="1" fill="#1E293B"/><circle cx="440" cy="540" r="1" fill="#1E293B"/><circle cx="440" cy="620" r="1" fill="#1E293B"/><circle cx="440" cy="700" r="1" fill="#1E293B"/><circle cx="440" cy="780" r="1" fill="#1E293B"/><circle cx="440" cy="860" r="1" fill="#1E293B"/><circle cx="440" cy="940" r="1" fill="#1E293B"/><circle cx="440" cy="1020" r="1" fill="#1E293B"/><circle cx="520" cy="60" r="1" fill="#1E293B"/><circle cx="520" cy="140" r="1" fill="#1E293B"/><circle cx="520" cy="220" r="1" fill="#1E293B"/><circle cx="520" cy="300" r="1" fill="#1E293B"/><circle cx="520" cy="380" r="1" fill="#1E293B"/><circle cx="520" cy="460" r="1" fill="#1E293B"/><circle cx="520" cy="540" r="1" fill="#1E293B"/><circle cx="520" cy="620" r="1" fill="#1E293B"/><circle cx="520" cy="700" r="1" fill="#1E293B"/><circle cx="520" cy="780" r="1" fill="#1E293B"/><circle cx="520" cy="860" r="1" fill="#1E293B"/><circle cx="520" cy="940" r="1" fill="#1E293B"/><circle cx="520" cy="1020" r="1" fill="#1E293B"/><circle cx="600" cy="60" r="1" fill="#1E293B"/><circle cx="600" cy="140" r="1" fill="#1E293B"/><circle cx="600" cy="220" r="1" fill="#1E293B"/><circle cx="600" cy="300" r="1" fill="#1E293B"/><circle cx="600" cy="380" r="1" fill="#1E293B"/><circle cx="600" cy="460" r="1" fill="#1E293B"/><circle cx="600" cy="540" r="1" fill="#1E293B"/><circle cx="600" cy="620" r="1" fill="#1E293B"/><circle cx="600" cy="700" r="1" fill="#1E293B"/><circle cx="600" cy="780" r="1" fill="#1E293B"/><circle cx="600" cy="860" r="1" fill="#1E293B"/><circle cx="600" cy="940" r="1" fill="#1E293B"/><circle cx="600" cy="1020" r="1" fill="#1E293B"/><circle cx="680" cy="60" r="1" fill="#1E293B"/><circle cx="680" cy="140" r="1" fill="#1E293B"/><circle cx="680" cy="220" r="1" fill="#1E293B"/><circle cx="680" cy="300" r="1" fill="#1E293B"/><circle cx="680" cy="380" r="1" fill="#1E293B"/><circle cx="680" cy="460" r="1" fill="#1E293B"/><circle cx="680" cy="540" r="1" fill="#1E293B"/><circle cx="680" cy="620" r="1" fill="#1E293B"/><circle cx="680" cy="700" r="1" fill="#1E293B"/><circle cx="680" cy="780" r="1" fill="#1E293B"/><circle cx="680" cy="860" r="1" fill="#1E293B"/><circle cx="680" cy="940" r="1" fill="#1E293B"/><circle cx="680" cy="1020" r="1" fill="#1E293B"/><circle cx="760" cy="60" r="1" fill="#1E293B"/><circle cx="760" cy="140" r="1" fill="#1E293B"/><circle cx="760" cy="220" r="1" fill="#1E293B"/><circle cx="760" cy="300" r="1" fill="#1E293B"/><circle cx="760" cy="380" r="1" fill="#1E293B"/><circle cx="760" cy="460" r="1" fill="#1E293B"/><circle cx="760" cy="540" r="1" fill="#1E293B"/><circle cx="760" cy="620" r="1" fill="#1E293B"/><circle cx="760" cy="700" r="1" fill="#1E293B"/><circle cx="760" cy="780" r="1" fill="#1E293B"/><circle cx="760" cy="860" r="1" fill="#1E293B"/><circle cx="760" cy="940" r="1" fill="#1E293B"/><circle cx="760" cy="1020" r="1" fill="#1E293B"/><circle cx="840" cy="60" r="1" fill="#1E293B"/><circle cx="840" cy="140" r="1" fill="#1E293B"/><circle cx="840" cy="220" r="1" fill="#1E293B"/><circle cx="840" cy="300" r="1" fill="#1E293B"/><circle cx="840" cy="380" r="1" fill="#1E293B"/><circle cx="840" cy="460" r="1" fill="#1E293B"/><circle cx="840" cy="540" r="1" fill="#1E293B"/><circle cx="840" cy="620" r="1" fill="#1E293B"/><circle cx="840" cy="700" r="1" fill="#1E293B"/><circle cx="840" cy="780" r="1" fill="#1E293B"/><circle cx="840" cy="860" r="1" fill="#1E293B"/><circle cx="840" cy="940" r="1" fill="#1E293B"/><circle cx="840" cy="1020" r="1" fill="#1E293B"/><circle cx="920" cy="60" r="1" fill="#1E293B"/><circle cx="920" cy="140" r="1" fill="#1E293B"/><circle cx="920" cy="220" r="1" fill="#1E293B"/><circle cx="920" cy="300" r="1" fill="#1E293B"/><circle cx="920" cy="380" r="1" fill="#1E293B"/><circle cx="920" cy="460" r="1" fill="#1E293B"/><circle cx="920" cy="540" r="1" fill="#1E293B"/><circle cx="920" cy="620" r="1" fill="#1E293B"/><circle cx="920" cy="700" r="1" fill="#1E293B"/><circle cx="920" cy="780" r="1" fill="#1E293B"/><circle cx="920" cy="860" r="1" fill="#1E293B"/><circle cx="920" cy="940" r="1" fill="#1E293B"/><circle cx="920" cy="1020" r="1" fill="#1E293B"/><circle cx="1000" cy="60" r="1" fill="#1E293B"/><circle cx="1000" cy="140" r="1" fill="#1E293B"/><circle cx="1000" cy="220" r="1" fill="#1E293B"/><circle cx="1000" cy="300" r="1" fill="#1E293B"/><circle cx="1000" cy="380" r="1" fill="#1E293B"/><circle cx="1000" cy="460" r="1" fill="#1E293B"/><circle cx="1000" cy="540" r="1" fill="#1E293B"/><circle cx="1000" cy="620" r="1" fill="#1E293B"/><circle cx="1000" cy="700" r="1" fill="#1E293B"/><circle cx="1000" cy="780" r="1" fill="#1E293B"/><circle cx="1000" cy="860" r="1" fill="#1E293B"/><circle cx="1000" cy="940" r="1" fill="#1E293B"/><circle cx="1000" cy="1020" r="1" fill="#1E293B"/><circle cx="1080" cy="60" r="1" fill="#1E293B"/><circle cx="1080" cy="140" r="1" fill="#1E293B"/><circle cx="1080" cy="220" r="1" fill="#1E293B"/><circle cx="1080" cy="300" r="1" fill="#1E293B"/><circle cx="1080" cy="380" r="1" fill="#1E293B"/><circle cx="1080" cy="460" r="1" fill="#1E293B"/><circle cx="1080" cy="540" r="1" fill="#1E293B"/><circle cx="1080" cy="620" r="1" fill="#1E293B"/><circle cx="1080" cy="700" r="1" fill="#1E293B"/><circle cx="1080" cy="780" r="1" fill="#1E293B"/><circle cx="1080" cy="860" r="1" fill="#1E293B"/><circle cx="1080" cy="940" r="1" fill="#1E293B"/><circle cx="1080" cy="1020" r="1" fill="#1E293B"/><circle cx="1160" cy="60" r="1" fill="#1E293B"/><circle cx="1160" cy="140" r="1" fill="#1E293B"/><circle cx="1160" cy="220" r="1" fill="#1E293B"/><circle cx="1160" cy="300" r="1" fill="#1E293B"/><circle cx="1160" cy="380" r="1" fill="#1E293B"/><circle cx="1160" cy="460" r="1" fill="#1E293B"/><circle cx="1160" cy="540" r="1" fill="#1E293B"/><circle cx="1160" cy="620" r="1" fill="#1E293B"/><circle cx="1160" cy="700" r="1" fill="#1E293B"/><circle cx="1160" cy="780" r="1" fill="#1E293B"/><circle cx="1160" cy="860" r="1" fill="#1E293B"/><circle cx="1160" cy="940" r="1" fill="#1E293B"/><circle cx="1160" cy="1020" r="1" fill="#1E293B"/><circle cx="1240" cy="60" r="1" fill="#1E293B"/><circle cx="1240" cy="140" r="1" fill="#1E293B"/><circle cx="1240" cy="220" r="1" fill="#1E293B"/><circle cx="1240" cy="300" r="1" fill="#1E293B"/><circle cx="1240" cy="380" r="1" fill="#1E293B"/><circle cx="1240" cy="460" r="1" fill="#1E293B"/><circle cx="1240" cy="540" r="1" fill="#1E293B"/><circle cx="1240" cy="620" r="1" fill="#1E293B"/><circle cx="1240" cy="700" r="1" fill="#1E293B"/><circle cx="1240" cy="780" r="1" fill="#1E293B"/><circle cx="1240" cy="860" r="1" fill="#1E293B"/><circle cx="1240" cy="940" r="1" fill="#1E293B"/><circle cx="1240" cy="1020" r="1" fill="#1E293B"/><circle cx="1320" cy="60" r="1" fill="#1E293B"/><circle cx="1320" cy="140" r="1" fill="#1E293B"/><circle cx="1320" cy="220" r="1" fill="#1E293B"/><circle cx="1320" cy="300" r="1" fill="#1E293B"/><circle cx="1320" cy="380" r="1" fill="#1E293B"/><circle cx="1320" cy="460" r="1" fill="#1E293B"/><circle cx="1320" cy="540" r="1" fill="#1E293B"/><circle cx="1320" cy="620" r="1" fill="#1E293B"/><circle cx="1320" cy="700" r="1" fill="#1E293B"/><circle cx="1320" cy="780" r="1" fill="#1E293B"/><circle cx="1320" cy="860" r="1" fill="#1E293B"/><circle cx="1320" cy="940" r="1" fill="#1E293B"/><circle cx="1320" cy="1020" r="1" fill="#1E293B"/><circle cx="1400" cy="60" r="1" fill="#1E293B"/><circle cx="1400" cy="140" r="1" fill="#1E293B"/><circle cx="1400" cy="220" r="1" fill="#1E293B"/><circle cx="1400" cy="300" r="1" fill="#1E293B"/><circle cx="1400" cy="380" r="1" fill="#1E293B"/><circle cx="1400" cy="460" r="1" fill="#1E293B"/><circle cx="1400" cy="540" r="1" fill="#1E293B"/><circle cx="1400" cy="620" r="1" fill="#1E293B"/><circle cx="1400" cy="700" r="1" fill="#1E293B"/><circle cx="1400" cy="780" r="1" fill="#1E293B"/><circle cx="1400" cy="860" r="1" fill="#1E293B"/><circle cx="1400" cy="940" r="1" fill="#1E293B"/><circle cx="1400" cy="1020" r="1" fill="#1E293B"/><circle cx="1480" cy="60" r="1" fill="#1E293B"/><circle cx="1480" cy="140" r="1" fill="#1E293B"/><circle cx="1480" cy="220" r="1" fill="#1E293B"/><circle cx="1480" cy="300" r="1" fill="#1E293B"/><circle cx="1480" cy="380" r="1" fill="#1E293B"/><circle cx="1480" cy="460" r="1" fill="#1E293B"/><circle cx="1480" cy="540" r="1" fill="#1E293B"/><circle cx="1480" cy="620" r="1" fill="#1E293B"/><circle cx="1480" cy="700" r="1" fill="#1E293B"/><circle cx="1480" cy="780" r="1" fill="#1E293B"/><circle cx="1480" cy="860" r="1" fill="#1E293B"/><circle cx="1480" cy="940" r="1" fill="#1E293B"/><circle cx="1480" cy="1020" r="1" fill="#1E293B"/><circle cx="1560" cy="60" r="1" fill="#1E293B"/><circle cx="1560" cy="140" r="1" fill="#1E293B"/><circle cx="1560" cy="220" r="1" fill="#1E293B"/><circle cx="1560" cy="300" r="1" fill="#1E293B"/><circle cx="1560" cy="380" r="1" fill="#1E293B"/><circle cx="1560" cy="460" r="1" fill="#1E293B"/><circle cx="1560" cy="540" r="1" fill="#1E293B"/><circle cx="1560" cy="620" r="1" fill="#1E293B"/><circle cx="1560" cy="700" r="1" fill="#1E293B"/><circle cx="1560" cy="780" r="1" fill="#1E293B"/><circle cx="1560" cy="860" r="1" fill="#1E293B"/><circle cx="1560" cy="940" r="1" fill="#1E293B"/><circle cx="1560" cy="1020" r="1" fill="#1E293B"/><circle cx="1640" cy="60" r="1" fill="#1E293B"/><circle cx="1640" cy="140" r="1" fill="#1E293B"/><circle cx="1640" cy="220" r="1" fill="#1E293B"/><circle cx="1640" cy="300" r="1" fill="#1E293B"/><circle cx="1640" cy="380" r="1" fill="#1E293B"/><circle cx="1640" cy="460" r="1" fill="#1E293B"/><circle cx="1640" cy="540" r="1" fill="#1E293B"/><circle cx="1640" cy="620" r="1" fill="#1E293B"/><circle cx="1640" cy="700" r="1" fill="#1E293B"/><circle cx="1640" cy="780" r="1" fill="#1E293B"/><circle cx="1640" cy="860" r="1" fill="#1E293B"/><circle cx="1640" cy="940" r="1" fill="#1E293B"/><circle cx="1640" cy="1020" r="1" fill="#1E293B"/><circle cx="1720" cy="60" r="1" fill="#1E293B"/><circle cx="1720" cy="140" r="1" fill="#1E293B"/><circle cx="1720" cy="220" r="1" fill="#1E293B"/><circle cx="1720" cy="300" r="1" fill="#1E293B"/><circle cx="1720" cy="380" r="1" fill="#1E293B"/><circle cx="1720" cy="460" r="1" fill="#1E293B"/><circle cx="1720" cy="540" r="1" fill="#1E293B"/><circle cx="1720" cy="620" r="1" fill="#1E293B"/><circle cx="1720" cy="700" r="1" fill="#1E293B"/><circle cx="1720" cy="780" r="1" fill="#1E293B"/><circle cx="1720" cy="860" r="1" fill="#1E293B"/><circle cx="1720" cy="940" r="1" fill="#1E293B"/><circle cx="1720" cy="1020" r="1" fill="#1E293B"/><circle cx="1800" cy="60" r="1" fill="#1E293B"/><circle cx="1800" cy="140" r="1" fill="#1E293B"/><circle cx="1800" cy="220" r="1" fill="#1E293B"/><circle cx="1800" cy="300" r="1" fill="#1E293B"/><circle cx="1800" cy="380" r="1" fill="#1E293B"/><circle cx="1800" cy="460" r="1" fill="#1E293B"/><circle cx="1800" cy="540" r="1" fill="#1E293B"/><circle cx="1800" cy="620" r="1" fill="#1E293B"/><circle cx="1800" cy="700" r="1" fill="#1E293B"/><circle cx="1800" cy="780" r="1" fill="#1E293B"/><circle cx="1800" cy="860" r="1" fill="#1E293B"/><circle cx="1800" cy="940" r="1" fill="#1E293B"/><circle cx="1800" cy="1020" r="1" fill="#1E293B"/><circle cx="1880" cy="60" r="1" fill="#1E293B"/><circle cx="1880" cy="140" r="1" fill="#1E293B"/><circle cx="1880" cy="220" r="1" fill="#1E293B"/><circle cx="1880" cy="300" r="1" fill="#1E293B"/><circle cx="1880" cy="380" r="1" fill="#1E293B"/><circle cx="1880" cy="460" r="1" fill="#1E293B"/><circle cx="1880" cy="540" r="1" fill="#1E293B"/><circle cx="1880" cy="620" r="1" fill="#1E293B"/><circle cx="1880" cy="700" r="1" fill="#1E293B"/><circle cx="1880" cy="780" r="1" fill="#1E293B"/><circle cx="1880" cy="860" r="1" fill="#1E293B"/><circle cx="1880" cy="940" r="1" fill="#1E293B"/><circle cx="1880" cy="1020" r="1" fill="#1E293B"/>

  
  <!-- Ambient glows -->
  <ellipse cx="300" cy="500" rx="600" ry="400" fill="#38BDF8" fill-opacity="0.018" filter="url(#glow)"/>
  <ellipse cx="1650" cy="700" rx="500" ry="350" fill="#EC4899" fill-opacity="0.018" filter="url(#glow)"/>

  <!-- Rainbow top line -->
  <rect x="0" y="0" width="1920" height="2" fill="url(#accentLine)"/>

  <!-- Header — altura 52px -->
  <rect x="0" y="0" width="1920" height="52" fill="#0B1120" fill-opacity="0.95"/>
  <rect x="0" y="51" width="1920" height="1" fill="#334155"/>

  <!-- Logo -->
  <text x="24" y="32" font-size="16" font-weight="700" fill="#38BDF8" font-family="Segoe UI">PIX</text>
  <text x="62" y="32" font-size="13" fill="#475569" font-family="Segoe UI"> · Dashboard BCB</text>

  <!-- Separador vertical entre logo e tabs -->
  <rect x="200" y="12" width="1" height="28" fill="#334155" fill-opacity="0.5"/>

  <!-- Tabs (centro) -->
  <text x="585" y="30" text-anchor="middle" font-size="12" fill="#475569" font-family="Segoe UI">Visão Geral</text>
  <text x="777" y="30" text-anchor="middle" font-size="12" fill="#475569" font-family="Segoe UI">Análise Temporal</text>
  <rect x="904" y="10" width="170" height="32" rx="7" fill="#1E3A5F"/><text x="989" y="30" text-anchor="middle" font-size="12" fill="#38BDF8" font-family="Segoe UI" font-weight="600">Análise Geográfica</text>

  <!-- Separador vertical entre tabs e slicers -->
  <rect x="1105" y="8" width="1" height="36" fill="#334155" fill-opacity="0.5"/>

  <!-- Slicer labels + caixinhas no lado direito do header -->
  <text x="1115" y="20" font-size="8" fill="#475569" font-family="Segoe UI" font-weight="500">📅 Ano</text>
  <rect x="1115" y="24" width="165" height="22" rx="5" fill="#1E293B" stroke="#334155" stroke-width="1"/>
  <text x="1125" y="39" font-size="10" fill="#94A3B8" font-family="Segoe UI">Todos</text>
  <text x="1263" y="39" font-size="10" fill="#475569" font-family="Segoe UI">▾</text>
  <text x="1315" y="20" font-size="8" fill="#475569" font-family="Segoe UI" font-weight="500">🗺 Região</text>
  <rect x="1315" y="24" width="165" height="22" rx="5" fill="#1E293B" stroke="#334155" stroke-width="1"/>
  <text x="1325" y="39" font-size="10" fill="#94A3B8" font-family="Segoe UI">Todos</text>
  <text x="1463" y="39" font-size="10" fill="#475569" font-family="Segoe UI">▾</text>
  <text x="1515" y="20" font-size="8" fill="#475569" font-family="Segoe UI" font-weight="500">📆 Mês</text>
  <rect x="1515" y="24" width="165" height="22" rx="5" fill="#1E293B" stroke="#334155" stroke-width="1"/>
  <text x="1525" y="39" font-size="10" fill="#94A3B8" font-family="Segoe UI">Todos</text>
  <text x="1663" y="39" font-size="10" fill="#475569" font-family="Segoe UI">▾</text>
  <text x="1715" y="20" font-size="8" fill="#475569" font-family="Segoe UI" font-weight="500">🏙 Estado</text>
  <rect x="1715" y="24" width="165" height="22" rx="5" fill="#1E293B" stroke="#334155" stroke-width="1"/>
  <text x="1725" y="39" font-size="10" fill="#94A3B8" font-family="Segoe UI">Todos</text>
  <text x="1863" y="39" font-size="10" fill="#475569" font-family="Segoe UI">▾</text>

  <!-- Valor Transacionado por Regiao (esq) -->
  <rect x="8" y="50" width="916" height="466" rx="10"
        fill="#1E293B" fill-opacity="0.6" stroke="#334155" stroke-width="1"/>

  <!-- Top Estados por Valor (dir) -->
  <rect x="922" y="50" width="990" height="466" rx="10"
        fill="#1E293B" fill-opacity="0.6" stroke="#334155" stroke-width="1"/>

  <!-- Detalhamento por Regiao e Estado (tabela) -->
  <rect x="8" y="510" width="1904" height="546" rx="10"
        fill="#1E293B" fill-opacity="0.6" stroke="#334155" stroke-width="1"/>

  <!-- Footer -->
  <rect x="0" y="1060" width="1920" height="20" fill="#0B1120"/>
  <text x="24" y="1074" font-size="8" fill="#334155" font-family="Segoe UI">Fonte: Banco Central do Brasil · Dados PIX · IBGE-BCB_ETL</text>
  <text x="1896" y="1074" text-anchor="end" font-size="8" fill="#334155" font-family="Segoe UI">Power BI · 1920×1080</text>

</svg>